<svg width="24" height="33" viewBox="0 0 24 33" fill="none" xmlns="http://www.w3.org/2000/svg">
<path fill-rule="evenodd" clip-rule="evenodd" d="M12.2802 0L10.9451 1.7967L11.6703 2.47253L13.9945 3.36264L12.2802 0ZM7.8956 5.85165L9.26374 4.03846L11.1099 5.6044L16.4011 7.9945L18.1813 11.456L10.1538 8.47253L7.8956 5.85165ZM6.44506 7.81319L5.45604 9.13187L8.73626 14.3571L21.6264 18.0989L20.1264 15.2143L9.37912 11.5385L6.44506 7.81319ZM22.7967 20.3571L8.17582 16.533L4.56593 10.3187L3.69231 11.5055L7.45055 19.022L24 22.6978M2.81868 12.6593L2.19231 13.5L6.44506 24.5275L20.7527 26.5714L23.9835 25.3022L7.12088 21.9066L2.81868 12.6593ZM1.4011 14.5385L0.89011 15.2308L5.27473 29.2582L12.3132 29.8187L16.6154 28.1538L5.76923 26.7692L1.4011 14.5385ZM0.296703 16.022L0 16.4176L4.4011 32.9011L7.86264 31.533L4.91209 31.3516L0.296703 16.022Z" fill="url(#paint0_linear_24_17)"/>
<defs>
<linearGradient id="paint0_linear_24_17" x1="0" y1="16.4505" x2="24" y2="16.4505" gradientUnits="userSpaceOnUse">
<stop stop-color="#006CFF"/>
<stop offset="1" stop-color="#0DF1FF"/>
</linearGradient>
</defs>
</svg>
